<!--
  Termic app icon - master SVG. Re-export via scripts/gen-icon.sh
  (rsvg-convert + `tauri icon`) after editing.

  Design: pixelated "T" on the warm-dark squircle. 80px cells with
  5px gaps (cell-to-gap ratio 16 - cells read as one chunky mark
  with just a hairline of separation). Bold strokes: crossbar 6
  cells wide x 2 cells tall, stem 2 cells wide x 5 cells tall, stem
  centered on x=512. Padding ~259px sides, ~217px top/bottom -
  matches the favicon proportions in termic.dev.

  Visible T bounding box: x 259.5..764.5, y 217..807 (centered
  horizontally at 512; the stem is centered at 512 across cols 2-3).

  Rules (learned the hard way):
    1. SOLID COLORS ONLY. Gradients silently drop in some rasterizers.
    2. No SVG filters. Renderer fall-back differs.
    3. Keep the silhouette readable at 16-32px dock thumbnails.
    4. Squircle 824x824 inside 1024 canvas (Apple Big Sur icon grid).
-->
<svg width="1024" height="1024" viewBox="0 0 1024 1024" xmlns="http://www.w3.org/2000/svg">
  <rect x="100" y="100" width="824" height="824" rx="180" fill="#0f0f0f"/>
  <g fill="#d97757">
    <!-- Crossbar: rows 0-1, cols 0-5 (12 cells) -->
    <rect x="259.5" y="217" width="80" height="80" rx="14"/>
    <rect x="344.5" y="217" width="80" height="80" rx="14"/>
    <rect x="429.5" y="217" width="80" height="80" rx="14"/>
    <rect x="514.5" y="217" width="80" height="80" rx="14"/>
    <rect x="599.5" y="217" width="80" height="80" rx="14"/>
    <rect x="684.5" y="217" width="80" height="80" rx="14"/>
    <rect x="259.5" y="302" width="80" height="80" rx="14"/>
    <rect x="344.5" y="302" width="80" height="80" rx="14"/>
    <rect x="429.5" y="302" width="80" height="80" rx="14"/>
    <rect x="514.5" y="302" width="80" height="80" rx="14"/>
    <rect x="599.5" y="302" width="80" height="80" rx="14"/>
    <rect x="684.5" y="302" width="80" height="80" rx="14"/>
    <!-- Stem: cols 2-3 (x=429.5, 514.5), rows 2-6 (10 cells) -->
    <rect x="429.5" y="387" width="80" height="80" rx="14"/>
    <rect x="514.5" y="387" width="80" height="80" rx="14"/>
    <rect x="429.5" y="472" width="80" height="80" rx="14"/>
    <rect x="514.5" y="472" width="80" height="80" rx="14"/>
    <rect x="429.5" y="557" width="80" height="80" rx="14"/>
    <rect x="514.5" y="557" width="80" height="80" rx="14"/>
    <rect x="429.5" y="642" width="80" height="80" rx="14"/>
    <rect x="514.5" y="642" width="80" height="80" rx="14"/>
    <rect x="429.5" y="727" width="80" height="80" rx="14"/>
    <rect x="514.5" y="727" width="80" height="80" rx="14"/>
  </g>
</svg>
